<svg xmlns="http://www.w3.org/2000/svg" viewBox="0 0 630 630">
  <rect width="630" height="630" fill="#f7df1e"/>
  <path d="m423.2 492.19c12.69 20.72 29.2 35.95 58.4 35.95 24.53 0 40.2-12.26 40.2-29.2 0-20.3-16.1-27.49-43.1-39.3l-14.8-6.35c-42.72-18.2-71.1-41-71.1-89.2 0-44.9 33.8-78.2 86.6-78.2 37.2 0 64.7 13.1 84.2 47.4l-46.1 29.6c-10.15-18.2-21.1-25.4-38.1-25.4-17.3 0-28.3 10.5-28.3 23.7 0 15.6 10.9 23.2 34.2 33.4l15.2 6.77c48.2 21.6 77.4 43.1 77.4 92.5 0 53.3-33.8 81.6-86.9 81.6-47.8 0-80.4-20.3-94.8-54.1zm-152.4-43.9c0-62.6-26.2-74.5-54.6-74.5-28.4 0-46.1 13.5-46.1 13.5v-181.6h-54.1v270.8h52v-26.6c11.4 16.1 28.3 27.9 57.1 27.9 44.4 0 45.7-36.8 45.7-56.7z"/>
</svg>