<svg xmlns="http://www.w3.org/2000/svg" viewBox="0 0 24 24">
  <path fill="#06B6D4" d="M12.0002 6C12.0002 6 12.0002 9 14.2502 10.5C16.5002 12 18.0002 10.5 18.0002 10.5C18.0002 10.5 21.0002 10.5 21.0002 15C21.0002 19.5 16.5002 19.5 16.5002 19.5C16.5002 19.5 16.5002 16.5 14.2502 15C12.0002 13.5 10.5002 15 10.5002 15M6.00024 6C6.00024 6 6.00024 9 8.25024 10.5C10.5002 12 12.0002 10.5 12.0002 10.5C12.0002 10.5 15.0002 10.5 15.0002 15C15.0002 19.5 10.5002 19.5 10.5002 19.5C10.5002 19.5 10.5002 16.5 8.25024 15C6.00024 13.5 4.50024 15 4.50024 15"/>
</svg>