<svg xmlns="http://www.w3.org/2000/svg" viewBox="0 0 128 128">
  <rect width="128" height="128" fill="#3178c6"/>
  <path fill="#fff" d="M19.5 75.2v-7.8h30.2v7.8h-11v32.6h-8.2V75.2h-11zm38.1 32.6L67.4 97c3.8 2.6 7.4 3.9 10.8 3.9 3.2 0 4.8-1.2 4.8-3.5 0-1.8-1-2.9-3.2-3.4l-7.3-1.6c-5.8-1.2-8.7-4.2-8.7-8.9 0-5.8 4.3-8.8 12.9-8.8 3.9 0 7.8 1.1 11.6 3.4l-3 6.9c-3.1-2-6.2-3-9.1-3-2.6 0-3.9 1-3.9 3.1 0 1.6 1.1 2.6 3.3 3.1l6.6 1.4c6.6 1.4 9.9 4.6 9.9 9.6 0 6.2-4.5 9.3-13.6 9.3-4.6 0-9.6-1.5-14.9-5.1z"/>
</svg>